# Blender v2.91.0 OBJ File: ''
# www.blender.org
mtllib Hexagon.mtl
o Cube.002_Cube.003
v 0.000303 -1.000000 -1.154525
v 0.000303 1.000000 -1.154525
v 0.999697 -1.000000 -0.577525
v 0.999697 1.000000 -0.577525
v -0.999697 -1.000000 0.577525
v -0.999697 1.000000 0.577525
v -0.000303 -1.000000 1.154525
v -0.000303 1.000000 1.154525
v -1.000000 -1.000000 0.577000
v -1.000000 1.000000 0.577000
v -1.000000 -1.000000 -0.577000
v -1.000000 1.000000 -0.577000
v 1.000000 -1.000000 0.577000
v 1.000000 1.000000 0.577000
v 1.000000 -1.000000 -0.577000
v 1.000000 1.000000 -0.577000
v 0.999697 -1.000000 0.577525
v 0.999697 1.000000 0.577525
v 0.000303 -1.000000 1.154525
v 0.000303 1.000000 1.154525
v -0.000303 -1.000000 -1.154525
v -0.000303 1.000000 -1.154525
v -0.999697 -1.000000 -0.577525
v -0.999697 1.000000 -0.577525
vt 0.375000 0.000000
vt 0.625000 0.000000
vt 0.625000 0.250000
vt 0.375000 0.250000
vt 0.375000 0.500000
vt 0.625000 0.500000
vt 0.625000 0.750000
vt 0.375000 0.750000
vt 0.375000 0.000000
vt 0.625000 0.000000
vt 0.625000 0.250000
vt 0.375000 0.250000
vt 0.375000 0.500000
vt 0.625000 0.500000
vt 0.625000 0.750000
vt 0.375000 0.750000
vt 0.375000 0.000000
vt 0.625000 0.000000
vt 0.625000 0.250000
vt 0.375000 0.250000
vt 0.375000 0.500000
vt 0.625000 0.500000
vt 0.625000 0.750000
vt 0.375000 0.750000
vn 0.5000 0.0000 -0.8660
vn -0.5000 0.0000 0.8660
vn -1.0000 0.0000 -0.0000
vn 1.0000 0.0000 0.0000
vn 0.5000 0.0000 0.8660
vn -0.5000 0.0000 -0.8660
vn 0.0000 0.0000 1.0000
vn -0.8662 0.0000 -0.4998
vn 0.0000 0.0000 -1.0000
vn 0.8662 0.0000 0.4998
vn 0.8660 0.0000 -0.5000
vn -0.8660 0.0000 0.5000
vn 0.0000 1.0000 -0.0000
vn 0.0000 -1.0000 -0.0000
usemtl None
s off
f 1/1/1 2/2/1 4/3/1 3/4/1
f 7/5/2 8/6/2 6/7/2 5/8/2
f 9/9/3 10/10/3 12/11/3 11/12/3
f 15/13/4 16/14/4 14/15/4 13/16/4
f 17/17/5 18/18/5 20/19/5 19/20/5
f 23/21/6 24/22/6 22/23/6 21/24/6
f 7/5/7 19/20/7 20/19/7 8/6/7
f 11/12/8 12/11/8 24/22/8 23/21/8
f 1/1/9 21/24/9 22/23/9 2/2/9
f 14/15/10 18/18/10 17/17/10 13/16/10
f 3/4/11 4/3/11 16/14/11 15/13/11
f 6/7/12 10/10/12 9/9/12 5/8/12
f 2/2/13 22/23/13 24/22/13 12/11/13 10/10/13 6/7/13 8/6/13 20/19/13 18/18/13 14/15/13 16/14/13 4/3/13
f 3/4/14 15/13/14 13/16/14 17/17/14 19/20/14 7/5/14 5/8/14 9/9/14 11/12/14 23/21/14 21/24/14 1/1/14
